{
  "accessors": [
    {
      "bufferView": 2,
      "componentType": 5126,
      "count": 871,
      "max": [
        2.569469690322876,
        4.579798221588135,
        4.901063919067383
      ],
      "min": [
        -2.5683770179748535,
        -3.0605015754699707,
        -1.123151421546936
      ],
      "type": "VEC3"
    },
    {
      "bufferView": 2,
      "byteOffset": 10452,
      "componentType": 5126,
      "count": 871,
      "max": [
        0.9992188811302185,
        0.9998766779899597,
        1.0
      ],
      "min": [
        -0.9992190003395081,
        -0.999922513961792,
        -0.7855230569839478
      ],
      "type": "VEC3"
    },
    {
      "bufferView": 3,
      "componentType": 5126,
      "count": 871,
      "max": [
        1.0,
        0.9996767044067383,
        0.9999403357505798,
        1.0
      ],
      "min": [
        -0.7859428524971008,
        -0.5789757370948792,
        -0.9999396204948425,
        1.0
      ],
      "type": "VEC4"
    },
    {
      "bufferView": 1,
      "componentType": 5126,
      "count": 871,
      "max": [
        0.9983446002006531,
        0.8152722716331482
      ],
      "min": [
        0.0,
        0.0
      ],
      "type": "VEC2"
    },
    {
      "bufferView": 0,
      "componentType": 5125,
      "count": 3900,
      "type": "SCALAR"
    },
    {
      "bufferView": 2,
      "byteOffset": 20904,
      "componentType": 5126,
      "count": 238,
      "max": [
        2.810655117034912,
        4.080955505371094,
        -0.19620442390441895
      ],
      "min": [
        -2.74733304977417,
        -3.4479336738586426,
        -6.459117412567139
      ],
      "type": "VEC3"
    },
    {
      "bufferView": 2,
      "byteOffset": 23760,
      "componentType": 5126,
      "count": 238,
      "max": [
        0.9991089701652527,
        0.2347366213798523,
        0.8498692512512207
      ],
      "min": [
        -0.9991089105606079,
        -0.2402033805847168,
        -0.9707232713699341
      ],
      "type": "VEC3"
    },
    {
      "bufferView": 3,
      "byteOffset": 13936,
      "componentType": 5126,
      "count": 238,
      "max": [
        1.0,
        0.9999945759773254,
        0.9992687106132507,
        1.0
      ],
      "min": [
        -0.8095042109489441,
        -0.03980829194188118,
        -0.9993557333946228,
        1.0
      ],
      "type": "VEC4"
    },
    {
      "bufferView": 1,
      "byteOffset": 6968,
      "componentType": 5126,
      "count": 238,
      "max": [
        1.0,
        0.9179077744483948
      ],
      "min": [
        0.0,
        0.0
      ],
      "type": "VEC2"
    },
    {
      "bufferView": 0,
      "byteOffset": 15600,
      "componentType": 5125,
      "count": 864,
      "type": "SCALAR"
    }
  ],
  "asset": {
    "extras": {
      "author": "zeki.kalagoglu (https://sketchfab.com/zeki.kalagoglu)",
      "license": "CC-BY-4.0 (http://creativecommons.org/licenses/by/4.0/)",
      "source": "https://sketchfab.com/3d-models/tengu-mask-1389125573c747b6a3dc405efc6e412e",
      "title": "Tengu Mask"
    },
    "generator": "Sketchfab-12.68.0",
    "version": "2.0"
  },
  "bufferViews": [
    {
      "buffer": 0,
      "byteLength": 19056,
      "name": "floatBufferViews",
      "target": 34963
    },
    {
      "buffer": 0,
      "byteLength": 8872,
      "byteOffset": 19056,
      "byteStride": 8,
      "name": "floatBufferViews",
      "target": 34962
    },
    {
      "buffer": 0,
      "byteLength": 26616,
      "byteOffset": 27928,
      "byteStride": 12,
      "name": "floatBufferViews",
      "target": 34962
    },
    {
      "buffer": 0,
      "byteLength": 17744,
      "byteOffset": 54544,
      "byteStride": 16,
      "name": "floatBufferViews",
      "target": 34962
    }
  ],
  "buffers": [
    {
      "byteLength": 72288,
      "uri": "scene.bin"
    }
  ],
  "images": [
    {
      "uri": "textures/tenmask_baseColor.png"
    },
    {
      "uri": "textures/tenmask_metallicRoughness.png"
    },
    {
      "uri": "textures/tenmask_normal.png"
    },
    {
      "uri": "textures/mband_baseColor.png"
    },
    {
      "uri": "textures/mband_metallicRoughness.png"
    },
    {
      "uri": "textures/mband_normal.png"
    }
  ],
  "materials": [
    {
      "doubleSided": true,
      "name": "tenmask",
      "normalTexture": {
        "index": 2
      },
      "occlusionTexture": {
        "index": 1
      },
      "pbrMetallicRoughness": {
        "baseColorTexture": {
          "index": 0
        },
        "metallicFactor": 0.0,
        "metallicRoughnessTexture": {
          "index": 1
        }
      }
    },
    {
      "doubleSided": true,
      "name": "mband",
      "normalTexture": {
        "index": 5
      },
      "occlusionTexture": {
        "index": 4
      },
      "pbrMetallicRoughness": {
        "baseColorTexture": {
          "index": 3
        },
        "metallicRoughnessTexture": {
          "index": 4
        }
      }
    }
  ],
  "meshes": [
    {
      "name": "tengumask_tenmask_0",
      "primitives": [
        {
          "attributes": {
            "NORMAL": 1,
            "POSITION": 0,
            "TANGENT": 2,
            "TEXCOORD_0": 3
          },
          "indices": 4,
          "material": 0,
          "mode": 4
        }
      ]
    },
    {
      "name": "maskband_mband_0",
      "primitives": [
        {
          "attributes": {
            "NORMAL": 6,
            "POSITION": 5,
            "TANGENT": 7,
            "TEXCOORD_0": 8
          },
          "indices": 9,
          "material": 1,
          "mode": 4
        }
      ]
    }
  ],
  "nodes": [
    {
      "children": [
        1
      ],
      "matrix": [
        1.0,
        0.0,
        0.0,
        0.0,
        0.0,
        2.220446049250313e-16,
        -1.0,
        0.0,
        0.0,
        1.0,
        2.220446049250313e-16,
        0.0,
        0.0,
        0.0,
        0.0,
        1.0
      ],
      "name": "Sketchfab_model"
    },
    {
      "children": [
        2
      ],
      "matrix": [
        1.0,
        0.0,
        0.0,
        0.0,
        0.0,
        0.0,
        1.0,
        0.0,
        0.0,
        -1.0,
        0.0,
        0.0,
        0.0,
        0.0,
        0.0,
        1.0
      ],
      "name": "tengumask.fbx"
    },
    {
      "children": [
        3
      ],
      "name": "RootNode"
    },
    {
      "children": [
        4,
        5
      ],
      "name": "tengumask"
    },
    {
      "mesh": 0,
      "name": "tengumask_tenmask_0"
    },
    {
      "children": [
        6
      ],
      "name": "maskband"
    },
    {
      "mesh": 1,
      "name": "maskband_mband_0"
    }
  ],
  "samplers": [
    {
      "magFilter": 9729,
      "minFilter": 9987,
      "wrapS": 10497,
      "wrapT": 10497
    }
  ],
  "scene": 0,
  "scenes": [
    {
      "name": "Sketchfab_Scene",
      "nodes": [
        0
      ]
    }
  ],
  "textures": [
    {
      "sampler": 0,
      "source": 0
    },
    {
      "sampler": 0,
      "source": 1
    },
    {
      "sampler": 0,
      "source": 2
    },
    {
      "sampler": 0,
      "source": 3
    },
    {
      "sampler": 0,
      "source": 4
    },
    {
      "sampler": 0,
      "source": 5
    }
  ]
}
